<svg xmlns="http://www.w3.org/2000/svg" xmlns:xlink="http://www.w3.org/1999/xlink" style="margin:auto;background:#173545;display:block;z-index:1;position:relative" width="1820" height="1000" preserveAspectRatio="xMidYMid" viewBox="0 0 1920 975">
<g transform="translate(960,487.5) scale(1,1) translate(-960,-487.5)"><linearGradient id="lg-0.2792243488354498" x1="0" x2="1" y1="0" y2="0">
  <stop stop-color="#5ebbc9" offset="0"></stop>
  <stop stop-color="#00ffff" offset="1"></stop>
</linearGradient><path d="M 1523 488 C 1523 659 1253 834 1090 887 C 927 940 665 913 564 775 C 463 637 352 258 452 119 C 552 -20 936 8 1099 61 C 1262 114 1523 317 1523 488" fill="url(#lg-0.2792243488354498)" opacity="0.4">
  <animate attributeName="d" dur="40s" repeatCount="indefinite" keyTimes="0;0.3333333333333333;0.6666666666666666;1" calcmod="spline" keySplines="0.3 0.1 0.7 0.9;0.3 0.1 0.7 0.9;0.3 0.1 0.7 0.9" begin="-4s" values="M 1523 488 C 1523 659 1253 834 1090 887 C 927 940 665 913 564 775 C 463 637 352 258 452 119 C 552 -20 936 8 1099 61 C 1262 114 1523 317 1523 488;M 1582 488 C 1582 664 1290 935 1123 989 C 956 1043 566 990 463 848 C 360 706 425 316 528 174 C 631 32 927 22 1094 76 C 1261 130 1582 312 1582 488;M 1654 488 C 1654 667 1286 912 1116 967 C 946 1022 565 996 460 851 C 355 706 357 271 462 126 C 567 -19 937 -19 1107 36 C 1277 91 1654 309 1654 488;M 1523 488 C 1523 659 1253 834 1090 887 C 927 940 665 913 564 775 C 463 637 352 258 452 119 C 552 -20 936 8 1099 61 C 1262 114 1523 317 1523 488"></animate>
</path><path d="M 1463 488 C 1463 645 1250 869 1100 918 C 950 967 611 935 519 808 C 427 681 413 284 505 157 C 597 30 927 78 1077 127 C 1227 176 1463 331 1463 488" fill="url(#lg-0.2792243488354498)" opacity="0.4">
  <animate attributeName="d" dur="40s" repeatCount="indefinite" keyTimes="0;0.3333333333333333;0.6666666666666666;1" calcmod="spline" keySplines="0.3 0.1 0.7 0.9;0.3 0.1 0.7 0.9;0.3 0.1 0.7 0.9" begin="-4s" values="M 1463 488 C 1463 645 1250 869 1100 918 C 950 967 611 935 519 808 C 427 681 413 284 505 157 C 597 30 927 78 1077 127 C 1227 176 1463 331 1463 488;M 1576 488 C 1576 668 1275 875 1104 931 C 933 987 623 955 517 809 C 411 663 364 277 470 131 C 576 -15 946 -51 1117 5 C 1288 61 1576 308 1576 488;M 1580 488 C 1580 645 1241 846 1092 894 C 943 942 668 893 576 766 C 484 639 503 349 595 222 C 687 95 951 8 1100 56 C 1249 104 1580 331 1580 488;M 1463 488 C 1463 645 1250 869 1100 918 C 950 967 611 935 519 808 C 427 681 413 284 505 157 C 597 30 927 78 1077 127 C 1227 176 1463 331 1463 488"></animate>
</path><path d="M 1656 488 C 1656 665 1290 930 1122 985 C 954 1040 620 953 516 810 C 412 667 413 309 517 166 C 621 23 913 60 1081 115 C 1249 170 1656 311 1656 488" fill="url(#lg-0.2792243488354498)" opacity="0.4">
  <animate attributeName="d" dur="40s" repeatCount="indefinite" keyTimes="0;0.3333333333333333;0.6666666666666666;1" calcmod="spline" keySplines="0.3 0.1 0.7 0.9;0.3 0.1 0.7 0.9;0.3 0.1 0.7 0.9" begin="-4s" values="M 1656 488 C 1656 665 1290 930 1122 985 C 954 1040 620 953 516 810 C 412 667 413 309 517 166 C 621 23 913 60 1081 115 C 1249 170 1656 311 1656 488;M 1563 488 C 1563 649 1251 863 1098 913 C 945 963 684 887 589 757 C 494 627 458 322 553 192 C 648 62 951 -5 1104 45 C 1257 95 1563 327 1563 488;M 1542 488 C 1542 660 1271 891 1108 944 C 945 997 589 969 488 830 C 387 691 440 322 541 183 C 642 44 936 7 1099 60 C 1262 113 1542 316 1542 488;M 1656 488 C 1656 665 1290 930 1122 985 C 954 1040 620 953 516 810 C 412 667 413 309 517 166 C 621 23 913 60 1081 115 C 1249 170 1656 311 1656 488"></animate>
</path><path d="M 1495 488 C 1495 642 1224 800 1077 848 C 930 896 680 882 589 757 C 498 632 461 316 552 191 C 643 66 930 79 1077 127 C 1224 175 1495 334 1495 488" fill="url(#lg-0.2792243488354498)" opacity="0.4">
  <animate attributeName="d" dur="40s" repeatCount="indefinite" keyTimes="0;0.3333333333333333;0.6666666666666666;1" calcmod="spline" keySplines="0.3 0.1 0.7 0.9;0.3 0.1 0.7 0.9;0.3 0.1 0.7 0.9" begin="-4s" values="M 1495 488 C 1495 642 1224 800 1077 848 C 930 896 680 882 589 757 C 498 632 461 316 552 191 C 643 66 930 79 1077 127 C 1224 175 1495 334 1495 488;M 1493 488 C 1493 647 1259 893 1108 942 C 957 991 591 953 497 824 C 403 695 458 320 552 191 C 646 62 924 80 1076 129 C 1228 178 1493 329 1493 488;M 1540 488 C 1540 643 1236 833 1088 881 C 940 929 690 876 599 750 C 508 624 501 346 592 220 C 683 94 949 19 1097 67 C 1245 115 1540 333 1540 488;M 1495 488 C 1495 642 1224 800 1077 848 C 930 896 680 882 589 757 C 498 632 461 316 552 191 C 643 66 930 79 1077 127 C 1224 175 1495 334 1495 488"></animate>
</path><path d="M 1587 488 C 1587 654 1234 792 1076 843 C 918 894 618 941 520 807 C 422 673 407 291 505 157 C 603 23 933 33 1091 84 C 1249 135 1587 322 1587 488" fill="url(#lg-0.2792243488354498)" opacity="0.4">
  <animate attributeName="d" dur="40s" repeatCount="indefinite" keyTimes="0;0.3333333333333333;0.6666666666666666;1" calcmod="spline" keySplines="0.3 0.1 0.7 0.9;0.3 0.1 0.7 0.9;0.3 0.1 0.7 0.9" begin="-4s" values="M 1587 488 C 1587 654 1234 792 1076 843 C 918 894 618 941 520 807 C 422 673 407 291 505 157 C 603 23 933 33 1091 84 C 1249 135 1587 322 1587 488;M 1553 488 C 1553 664 1281 904 1113 958 C 945 1012 551 1003 447 860 C 343 717 447 333 551 190 C 655 47 948 -47 1116 7 C 1284 61 1553 312 1553 488;M 1562 488 C 1562 645 1247 859 1097 908 C 947 957 631 920 539 793 C 447 666 481 334 573 207 C 665 80 944 26 1094 75 C 1244 124 1562 331 1562 488;M 1587 488 C 1587 654 1234 792 1076 843 C 918 894 618 941 520 807 C 422 673 407 291 505 157 C 603 23 933 33 1091 84 C 1249 135 1587 322 1587 488"></animate>
</path></g>
</svg>